<?xml version="1.0" encoding="UTF-8" standalone="no"?>
<!-- Created with Inkscape (http://www.inkscape.org/) -->

<svg
   xmlns:osb="http://www.openswatchbook.org/uri/2009/osb"
   xmlns:dc="http://purl.org/dc/elements/1.1/"
   xmlns:cc="http://creativecommons.org/ns#"
   xmlns:rdf="http://www.w3.org/1999/02/22-rdf-syntax-ns#"
   xmlns:svg="http://www.w3.org/2000/svg"
   xmlns="http://www.w3.org/2000/svg"
   xmlns:sodipodi="http://sodipodi.sourceforge.net/DTD/sodipodi-0.dtd"
   xmlns:inkscape="http://www.inkscape.org/namespaces/inkscape"
   id="svg6270"
   version="1.1"
   inkscape:version="0.48.5 r10040"
   width="800"
   height="600"
   sodipodi:docname="walkL0.svg">
  <metadata
     id="metadata6276">
    <rdf:RDF>
      <cc:Work
         rdf:about="">
        <dc:format>image/svg+xml</dc:format>
        <dc:type
           rdf:resource="http://purl.org/dc/dcmitype/StillImage" />
        <dc:title></dc:title>
      </cc:Work>
    </rdf:RDF>
  </metadata>
  <defs
     id="defs6274">
    <linearGradient
       id="linearGradient6820"
       osb:paint="solid">
      <stop
         style="stop-color:#000000;stop-opacity:1;"
         offset="0"
         id="stop6822" />
    </linearGradient>
    <inkscape:perspective
       sodipodi:type="inkscape:persp3d"
       inkscape:vp_x="0 : 300 : 1"
       inkscape:vp_y="0 : 1000 : 0"
       inkscape:vp_z="800 : 300 : 1"
       inkscape:persp3d-origin="400 : 200 : 1"
       id="perspective6299" />
    <filter
       inkscape:collect="always"
       id="filter8336">
      <feGaussianBlur
         inkscape:collect="always"
         stdDeviation="1.05"
         id="feGaussianBlur8338" />
    </filter>
  </defs>
  <sodipodi:namedview
     pagecolor="#ffffff"
     bordercolor="#666666"
     borderopacity="1"
     objecttolerance="10"
     gridtolerance="10"
     guidetolerance="10"
     inkscape:pageopacity="0"
     inkscape:pageshadow="2"
     inkscape:window-width="1920"
     inkscape:window-height="1031"
     id="namedview6272"
     showgrid="false"
     inkscape:zoom="1.1125147"
     inkscape:cx="345.22367"
     inkscape:cy="241.31171"
     inkscape:window-x="0"
     inkscape:window-y="1"
     inkscape:window-maximized="1"
     inkscape:current-layer="svg6270" />
  <g
     id="g6281"
     transform="translate(5.0847436,2.542369)"
     style="fill-opacity:1;stroke:#00bfef;stroke-opacity:1;fill:none;filter:url(#filter8336)">
    <path
       style="fill:#00bfff;stroke:none;stroke-opacity:1;stroke-width:2;stroke-miterlimit:4;stroke-dasharray:none;stroke-linecap:round;stroke-dashoffset:0;fill-opacity:1"
       d="m 307.33329,596.53429 c -13.10671,-8.38986 -51.33382,-4.29011 -45.33285,-24.96161 18.20367,-7.31174 39.39241,-15.22225 58.88945,-14.20536 -12.60985,9.90403 -36.28182,12.61262 -52.72462,19.42635 18.22849,5.85399 39.77315,15.36914 60.79105,13.59781 28.53301,-0.69137 57.30315,-5.72416 82.77056,-19.13734 19.28617,0.30559 -14.64675,16.02458 -22.26888,16.93493 -26.41871,7.82537 -54.64817,11.91337 -82.12471,8.34522 z M 416,568.09125 c -27.34918,-3.39822 -54.50668,-11.17754 -79.22495,-23.26695 -38.5702,-25.10929 -56.39844,-70.40191 -69.06753,-112.68107 -6.96281,-29.9326 -2.02237,-61.63122 8.37777,-90.09924 4.10049,-15.31162 20.82406,-35.90097 18.25976,-47.39334 -32.89031,-19.1102 -53.2411,-54.76143 -58.51368,-91.79022 -4.36562,-31.855 20.76881,-57.538 46.97833,-71.13707 30.55916,-20.71315 70.2596,-9.71465 99.66382,7.17482 18.76545,11.88341 25.74416,36.42072 26.46874,57.55054 1.96875,16.00631 -7.59152,37.47783 -5.92985,48.90376 15.51576,6.93892 39.62986,16.54431 43.79375,32.75889 -19.49716,-7.89053 -38.12964,-29.88155 -62.87573,-27.69519 2.05853,-7.9233 19.54938,-8.9208 14.8734,-23.73233 4.00341,-25.86992 6.47669,-57.2046 -15.34956,-76.3539 -17.80262,-16.87871 -42.82217,-20.19226 -66.2623,-21.0181 -25.90093,2.34156 -50.40838,17.31215 -65.88444,37.9381 -18.3858,28.75923 -3.11712,64.59835 13.26048,90.4767 12.33718,14.03979 32.62462,43.03676 52.15071,24.49963 5.83534,11.33734 -24.91608,23.30533 -24.26046,40.01808 -10.20666,21.01861 -17.30325,42.88773 -19.90759,66.15583 -0.18251,14.12153 -1.36282,28.96206 1.51271,42.79228 13.52104,38.00664 27.20939,79.44581 61.41318,104.01008 19.8542,12.39332 43.05731,19.86763 65.95549,24.32105 23.75932,2.46844 48.51046,6.85779 71.52928,-1.7137 26.60076,-7.74044 54.64017,-9.54529 80.98396,-18.03591 20.82741,-11.17747 -17.64755,-26.49295 -20.60485,-41.50079 -7.06379,-19.66608 -19.68626,-36.6151 -21.01384,-58.08872 -4.47999,-25.36031 -9.03983,-50.93034 -20.51346,-74.24022 -6.13391,-8.6408 -14.79307,-49.1409 -0.70503,-23.53716 9.17495,27.50945 22.6382,53.69861 25.78513,82.91759 2.23705,22.62141 10.56775,43.11119 19.96986,63.47653 2.96472,19.90392 41.68764,33.79154 29.86182,51.78609 -23.92557,14.75261 -53.27906,13.6849 -79.57445,21.74144 -23.30284,6.0346 -47.1956,7.05749 -71.15047,5.7625 z m -138.69855,-5.74807 c 8.12723,-17.72546 40.92043,-15.70158 55.69855,-9.32413 -16.01503,2.81182 -40.51451,4.48399 -55.69855,9.32413 l 0,0 z M 413.63644,340.22076 c 14.14103,-16.11819 40.15162,-9.92702 59.54077,-14.36195 22.33954,-1.95302 44.84375,-2.32572 67.21617,-2.80402 24.14986,6.12542 40.6484,-16.88572 63.66162,-19.03515 15.96282,-3.21093 35.30152,-15.88893 14.95828,-29.65476 -8.31415,-11.54394 -19.99163,-27.35934 -36.16604,-24.06463 -56.05745,3.52203 -112.22638,19.04843 -158.91638,50.94912 -11.09366,2.71382 -24.24307,19.91171 -32.93086,16.72423 12.34915,-18.6575 36.06206,-25.52476 54.12182,-37.81454 44.76501,-24.22571 95.48922,-34.40684 145.80916,-38.33665 12.99079,5.04813 25.49443,12.3241 31.59227,25.51511 18.35738,12.18205 16.31044,35.48948 -6.00803,39.66989 -22.34562,4.35178 -40.64596,19.08162 -62.23722,24.07159 -46.68879,-1.30481 -93.67108,0.95031 -139.5976,9.62814 l -1.04396,-0.48638 z m 35.92582,-73.12002 c 12.04685,-15.00752 33.27963,-25.61886 53.1166,-29.48374 19.17679,-5.5056 37.884,-12.26948 57.91163,-14.24709 13.13073,-0.61857 21.8774,24.67303 4.19642,9.64669 -9.34677,-4.3638 -22.63425,1.34198 -32.41803,3.52257 -19.34565,6.6644 -40.4874,9.08526 -58.68669,19.03551 -5.8347,6.11909 -15.45385,12.95076 -24.11993,11.52606 z"
       id="path6295"
       inkscape:connector-curvature="0" />
  </g>
  <g
     inkscape:groupmode="layer"
     id="layer3"
     inkscape:label="01"
     style="display:none" />
</svg>
